<svg width="40" height="40" viewBox="0 0 40 40" xmlns="http://www.w3.org/2000/svg"><path d="M24.943 23.076c-1.168.722-1.896.936-2.942 1.039l3.418 3.366a1.18 1.18 0 0 1 0 1.714l-.579.633c-.493.474-1.418.221-1.91-.253-.823-.792-1.63-1.458-2.86-2.64l-2.828 2.64c-.492.474-1.481.695-1.973.222l-.607-.661a1.18 1.18 0 0 1 0-1.714c1.873-1.801 3.416-3.363 3.416-3.363-1.046-.102-1.731-.255-2.91-.983-1.38-.852-1.991-1.771-1.45-2.816.31-.6 1.17-1.217 2.313-.352 1.544 1.171 4.025 1.171 4.025 1.171s2.48 0 4.025-1.171c1.142-.865 2.002-.248 2.313.352.541 1.045-.071 1.964-1.451 2.816zm-4.919-3.102c-2.741 0-4.963-2.242-4.963-5.007 0-2.766 2.222-5.006 4.963-5.006s4.963 2.24 4.963 5.006c0 2.765-2.222 5.007-4.963 5.007zm-.016-6.983a2.004 2.004 0 0 0-2.001 2.007c0 1.109.896 2.008 2.001 2.008a2.005 2.005 0 0 0 2.001-2.008 2.004 2.004 0 0 0-2.001-2.007z" fill="#FFF" fill-rule="evenodd"/></svg>