<svg width="40" height="40" viewBox="0 0 40 40" xmlns="http://www.w3.org/2000/svg"><path d="M28.745 12.986c-.729.433-1.467 1.023-2.325 1.192a3.771 3.771 0 0 0-6.426 3.439 10.713 10.713 0 0 1-7.772-3.939 3.753 3.753 0 0 0-.51 1.894 3.77 3.77 0 0 0 1.677 3.14 3.781 3.781 0 0 1-1.708-.471v.047c0 1.827 1.3 3.35 3.025 3.697a3.79 3.79 0 0 1-1.703.064 3.776 3.776 0 0 0 3.522 2.62 7.571 7.571 0 0 1-5.582 1.56 10.669 10.669 0 0 0 5.78 1.695c6.935 0 10.728-5.746 10.728-10.729 0-.164-.004-.326-.011-.488.737-.531 1.583-1.265 2.089-2.021-.676.3-1.61.572-2.373.664.779-.468 1.307-1.482 1.589-2.364z" fill="#FFF" fill-rule="evenodd"/></svg>