<svg width="40" height="40" viewBox="0 0 40 40" xmlns="http://www.w3.org/2000/svg"><path d="M25.456 20.676c.442.556.663 1.253.663 2.093 0 .684-.157 1.299-.471 1.845a3.498 3.498 0 0 1-1.291 1.296c-.338.197-.848.342-1.53.431-.908.12-1.51.18-1.806.18h-6.959V13.329h7.546c1.257 0 2.223.315 2.896.944.673.631 1.01 1.411 1.01 2.341 0 .779-.24 1.448-.721 2.006-.32.372-.788.666-1.405.882.937.228 1.626.62 2.068 1.174zm-4.262-4.351c-.246-.215-.675-.323-1.286-.323H18v2.501h1.882c.628 0 1.066-.109 1.312-.328.246-.219.369-.536.369-.949 0-.384-.123-.685-.369-.901zm.463 5.044c-.282-.237-.776-.355-1.482-.355H18v2.673h2.184c.694 0 1.184-.125 1.468-.374.285-.248.428-.583.428-1.003 0-.39-.142-.704-.423-.941z" fill="#FFF" fill-rule="evenodd"/></svg>